<svg id="圖層_1" data-name="圖層 1" xmlns="http://www.w3.org/2000/svg" viewBox="0 0 281.97 475.63"><defs><style>.cls-1{fill:#dbdcdc;}.cls-2{fill:#ded138;}.cls-3{fill:#fff;}</style></defs><polygon class="cls-1" points="136.87 8.81 112.69 19.04 112.69 10.22 136.87 0 136.87 8.81"/><polygon class="cls-2" points="170.65 19.04 145.29 8.81 145.29 0 170.65 10.22 170.65 19.04"/><polygon class="cls-2" points="139.74 27.51 170.65 35.18 170.65 26.36 139.74 18.69 139.74 27.51"/><polygon class="cls-1" points="112.69 35.18 131.33 27.51 131.33 18.69 112.69 26.36 112.69 35.18"/><polygon class="cls-1" points="141.35 46.86 112.69 54.53 112.69 45.71 141.35 38.04 141.35 46.86"/><polygon class="cls-2" points="170.65 54.53 149.77 46.86 149.77 38.04 170.65 45.71 170.65 54.53"/><polygon class="cls-2" points="155.42 63.49 170.65 71.16 170.65 62.34 155.42 54.67 155.42 63.49"/><polygon class="cls-1" points="112.69 71.16 147 63.49 147 54.67 112.69 62.34 112.69 71.16"/><polygon class="cls-1" points="141.35 84.51 112.69 87.95 112.69 79.14 141.35 75.7 141.35 84.51"/><polygon class="cls-2" points="170.65 87.95 149.77 84.51 149.77 75.7 170.65 79.14 170.65 87.95"/><polygon class="cls-1" points="135.19 104 112.69 106.24 112.69 97.43 135.19 95.18 135.19 104"/><polygon class="cls-2" points="170.65 106.24 143.6 104 143.6 95.18 170.65 97.43 170.65 106.24"/><path class="cls-3" d="M499.68,542.54l.78-.47q.84,1.53,1.92,1.53a1.91,1.91,0,0,0,.88-.22,1.5,1.5,0,0,0,.52-2.27,7.59,7.59,0,0,0-1.59-1.49,8.12,8.12,0,0,1-1.44-1.26,2.37,2.37,0,0,1-.49-1.42,2.18,2.18,0,0,1,.29-1.1,2.06,2.06,0,0,1,.82-.78,2.4,2.4,0,0,1,2.36,0,4.05,4.05,0,0,1,1.21,1.19l-.76.57a3.32,3.32,0,0,0-.89-.91,1.48,1.48,0,0,0-.8-.22,1.28,1.28,0,0,0-.92.34,1.11,1.11,0,0,0-.35.83,1.48,1.48,0,0,0,.12.59,2.45,2.45,0,0,0,.46.62c.13.11.52.42,1.2.92a6.8,6.8,0,0,1,1.65,1.58,2.54,2.54,0,0,1,.45,1.39,2.34,2.34,0,0,1-.77,1.75,2.56,2.56,0,0,1-1.86.75,2.74,2.74,0,0,1-1.53-.45A4.08,4.08,0,0,1,499.68,542.54Z" transform="translate(-499.68 -245)"/><path class="cls-3" d="M511.05,535H512v9.26h-.92Z" transform="translate(-499.68 -245)"/><path class="cls-3" d="M517.8,544.26l1.32-9.26h.15l3.77,7.6,3.73-7.6h.14l1.34,9.26h-.91l-.92-6.62-3.27,6.62h-.24l-3.31-6.67-.91,6.67Z" transform="translate(-499.68 -245)"/><path class="cls-3" d="M534.18,535H536a10.75,10.75,0,0,1,2.14.14,2.42,2.42,0,0,1,1.3.8,2.36,2.36,0,0,1,.5,1.53,2.32,2.32,0,0,1-.49,1.53,2.45,2.45,0,0,1-1.35.81,12.12,12.12,0,0,1-2.36.15h-.66v4.3h-.93Zm.93.91v3.14l1.57,0a4.24,4.24,0,0,0,1.39-.17,1.46,1.46,0,0,0,.69-.56,1.55,1.55,0,0,0,.25-.87,1.51,1.51,0,0,0-.25-.85,1.47,1.47,0,0,0-.66-.55,4,4,0,0,0-1.35-.16Z" transform="translate(-499.68 -245)"/><path class="cls-3" d="M546,535h.92v8.37h3.56v.89H546Z" transform="translate(-499.68 -245)"/><path class="cls-3" d="M556,535h5.31v.91H557v2.9h4.34v.91H557v3.64h4.34v.9H556Z" transform="translate(-499.68 -245)"/><path class="cls-3" d="M572.18,533.84h.41v11.07h-.41Z" transform="translate(-499.68 -245)"/><path class="cls-3" d="M584.09,535h5.3v.91H585v2.9h4.34v.91H585v3.64h4.34v.9h-5.26Z" transform="translate(-499.68 -245)"/><path class="cls-3" d="M595.12,535H596v8.37h3.56v.89h-4.48Z" transform="translate(-499.68 -245)"/><path class="cls-3" d="M605.2,535h5.31v.91h-4.38v2.9h4.34v.91h-4.34v3.64h4.34v.9H605.2Z" transform="translate(-499.68 -245)"/><path class="cls-3" d="M625.17,536.56l-.72.68a5.59,5.59,0,0,0-1.7-1.16,4.57,4.57,0,0,0-1.8-.39,4.37,4.37,0,0,0-2.07.53,4,4,0,0,0-1.53,1.46,3.73,3.73,0,0,0-.54,1.93,3.87,3.87,0,0,0,.56,2,4.09,4.09,0,0,0,1.55,1.48,4.45,4.45,0,0,0,2.17.54,3.66,3.66,0,0,0,2.41-.81,3.22,3.22,0,0,0,1.18-2.09h-3v-.89h4a4.6,4.6,0,0,1-1.27,3.4,4.54,4.54,0,0,1-3.38,1.27,5.07,5.07,0,0,1-4.06-1.75,4.66,4.66,0,0,1-1.16-3.12,4.79,4.79,0,0,1,2.48-4.22,5.22,5.22,0,0,1,2.6-.64,5.67,5.67,0,0,1,2.22.43A6.51,6.51,0,0,1,625.17,536.56Z" transform="translate(-499.68 -245)"/><path class="cls-3" d="M635.39,535l4.31,9.26h-1l-1.45-3h-4l-1.44,3h-1l4.38-9.26Zm-.12,2-1.59,3.35h3.17Z" transform="translate(-499.68 -245)"/><path class="cls-3" d="M645.27,544.26V535h.2l6.16,7.1V535h.92v9.26h-.21l-6.11-7v7Z" transform="translate(-499.68 -245)"/><path class="cls-3" d="M667.55,536.72l-.73.56a4,4,0,0,0-1.45-1.19,4.29,4.29,0,0,0-1.86-.41,4.05,4.05,0,0,0-2,.54,3.86,3.86,0,0,0-1.47,1.42,4,4,0,0,0-.52,2,3.79,3.79,0,0,0,1.17,2.83,4,4,0,0,0,2.93,1.13,4.13,4.13,0,0,0,3.25-1.52l.73.55a4.75,4.75,0,0,1-1.73,1.37,5.43,5.43,0,0,1-2.31.48,4.83,4.83,0,0,1-3.84-1.62,4.9,4.9,0,0,1-1.17-3.3,4.57,4.57,0,0,1,1.42-3.42,4.92,4.92,0,0,1,3.58-1.39,5.29,5.29,0,0,1,2.34.51A4.78,4.78,0,0,1,667.55,536.72Z" transform="translate(-499.68 -245)"/><path class="cls-3" d="M673.54,535h5.3v.91h-4.38v2.9h4.35v.91h-4.35v3.64h4.35v.9h-5.27Z" transform="translate(-499.68 -245)"/><path class="cls-3" d="M689.68,533.84h.42v11.07h-.42Z" transform="translate(-499.68 -245)"/><path class="cls-3" d="M701.59,535h5.31v.91h-4.38v2.9h4.34v.91h-4.34v3.64h4.34v.9h-5.27Z" transform="translate(-499.68 -245)"/><path class="cls-3" d="M711.7,535.91V535h5.08v.91h-2.07v8.35h-.94v-8.35Z" transform="translate(-499.68 -245)"/><path class="cls-3" d="M722.24,535h5.31v.91h-4.38v2.9h4.34v.91h-4.34v3.64h4.34v.9h-5.27Z" transform="translate(-499.68 -245)"/><path class="cls-3" d="M733.32,535h1.85a11.46,11.46,0,0,1,2.09.13,2.45,2.45,0,0,1,1.34.81,2.32,2.32,0,0,1,.52,1.53,2.45,2.45,0,0,1-.36,1.33,2.21,2.21,0,0,1-1,.86,4.5,4.5,0,0,1-1.82.3l3.33,4.3H738.1l-3.33-4.3h-.52v4.3h-.93Zm.93.91v3.15h1.59a4,4,0,0,0,1.38-.18,1.41,1.41,0,0,0,.69-.56,1.59,1.59,0,0,0,0-1.71,1.38,1.38,0,0,0-.67-.55,4,4,0,0,0-1.36-.16Z" transform="translate(-499.68 -245)"/><path class="cls-3" d="M745.23,544.26V535h.2l6.16,7.1V535h.92v9.26h-.21l-6.11-7v7Z" transform="translate(-499.68 -245)"/><path class="cls-3" d="M758.75,535h.93v9.26h-.93Z" transform="translate(-499.68 -245)"/><path class="cls-3" d="M765,535.91V535h5.07v.91H768v8.35h-.94v-8.35Z" transform="translate(-499.68 -245)"/><path class="cls-3" d="M774.81,535h1.06l2.37,3.82,2.34-3.82h1.07l-2.94,4.84v4.42h-.91v-4.42Z" transform="translate(-499.68 -245)"/><path class="cls-3" d="M767.4,611.11v-8H650.13v8h51.42a3,3,0,0,1,3.22,3.26v8.07a2.52,2.52,0,0,1-2.7,2.79h-51.4v8h51.4a2.66,2.66,0,0,1,2.7,2.76v8.28a2.65,2.65,0,0,1-2.91,2.47H650.13v8H767.4v-8H715.8c-3.35,0-3-2.68-3-2.68v-8.28s-.1-2.55,3.15-2.55h51v-8h-51a2.87,2.87,0,0,1-3.15-2.47v-8.7s-.1-2.95,3.46-2.95Z" transform="translate(-499.68 -245)"/><path class="cls-3" d="M715.28,678.46h51.58v-8H717.69c-5.52,0-4.93-3.44-4.93-3.92v-1.9c0-1,.18-2.61-2.06-2.61h-4c-2,0-2,1.94-2,2.51v1.76s.86,4.16-4.9,4.16h-49.2v8H702c2.62,0,2.8,1.81,2.8,2.44v3.25c0,.51.26,1.42-2.22,2.39s-52.42,24.27-52.42,24.27l.4,8.38s41.78-19.58,53.07-24.38a13.22,13.22,0,0,1,10.47-.27c10.32,4.36,53.73,24.65,53.73,24.65l-.4-8.38s-49.43-23-52.18-24.18c-2.39-1-2.46-1.68-2.46-2.48v-3.67C712.76,679.7,712.76,678.46,715.28,678.46Z" transform="translate(-499.68 -245)"/><path class="cls-3" d="M716.14,594.5c7.37-2.21,25.56-9.45,32.68-11.66,3.89-1.21,3.24-4.29,2.95-5.06s-1.08-3.41-6.11-2c-8.71,2.5-24.13,9.13-29.86,10.82a22.11,22.11,0,0,1-12.78-.17c-7.55-2.57-25.71-9.91-25.71-9.91l-3.86-1.21c-2.27-.71-4.73-.24-5.2,2a4.5,4.5,0,0,0,3.29,5.4c3,.89,5.51,1.73,5.51,1.73l25.78,9.95S710.12,596.31,716.14,594.5Z" transform="translate(-499.68 -245)"/><path class="cls-3" d="M531.51,596.86l-3,8.55h9.27l3.33-9.42s1.43-2.93,5.71-2.93H560l2.23-7.46H534.06c-7.43,0-4.76-5.61-4.43-6.46s2-5.55,2-5.55h-9.27s-4.05,11.52-4.24,12-3.77,7.46,3.59,7.46H529C532.58,593.06,531.51,596.86,531.51,596.86Z" transform="translate(-499.68 -245)"/><path class="cls-3" d="M585.38,596.86l-3,8.55h9.27L595,596s1.43-2.93,5.72-2.93h13.24l2.22-7.46h-28.2c-7.44,0-4.77-5.61-4.44-6.46s2-5.55,2-5.55h-9.27s-4,11.52-4.24,12-3.76,7.46,3.59,7.46h7.31C586.45,593.06,585.38,596.86,585.38,596.86Z" transform="translate(-499.68 -245)"/><path class="cls-3" d="M586.7,667.08s.11-3.76-3.49-3.76H549c-3,0-3.18,3.37-3.18,3.37v30.86a3.47,3.47,0,0,0,3.73,3.79H583a3.44,3.44,0,0,0,3.67-3.47Zm-7.57,6.23v17.25s.08,3.31-3.09,3.31H556.35c-3.6,0-3-3-3-3V673.73s-.23-3,3.16-3h19.9A2.46,2.46,0,0,1,579.13,673.31Z" transform="translate(-499.68 -245)"/><rect class="cls-3" x="60.88" y="434.37" width="11.5" height="5.92"/><path class="cls-3" d="M522.7,643.79v-31h-5.29c-3.77,0-3.89,4-3.89,4V720.63h9.18V643.79Z" transform="translate(-499.68 -245)"/><path class="cls-3" d="M552.74,612.83H527.43v7.46h17.23c4,0,3.34,3.09,3.34,3.09v2.46s.55,2.63-2.88,2.63h-9v5.92h9.5c2.53,0,2.38,2.65,2.38,2.65v3.56s.55,3.19-4,3.19H527.43v7.46h24.19c3.44,0,3.94-2.85,3.94-4.7v-30S555.77,612.83,552.74,612.83Z" transform="translate(-499.68 -245)"/><polygon class="cls-3" points="110.09 398.79 110.09 375.29 110.07 375.29 110.07 398.79 110.09 398.79"/><path class="cls-3" d="M614.76,612.83h-5v7.46h0v23.5h0v7.46h0v69.38h9.18V617.72S618.7,612.83,614.76,612.83Z" transform="translate(-499.68 -245)"/><path class="cls-3" d="M587.88,643.79c-3.83,0-3.26-3-3.26-3V637a2.66,2.66,0,0,1,2.76-2.65h7.91v-5.92h-7.81c-3.53,0-2.86-2.63-2.86-2.63V623s-.37-2.73,3.26-2.73H605v-7.46H580.67c-3.75,0-3.62,3.23-3.62,3.23v30.49s-.46,4.7,3.31,4.7H605v-7.46Z" transform="translate(-499.68 -245)"/><path class="cls-3" d="M747.31,499.51c-13.29-6.16-27.64-12.8-29.07-13.45-5.91-2.7-12.66-.09-12.66-.09-1.29.5-15.36,7-28.61,13.17l.06,8.66c13.61-6.26,28.34-13,29.6-13.57,2.38-1,5.2-2.49,10.46-.27,5.1,2.15,18.27,8.19,30.3,13.76Z" transform="translate(-499.68 -245)"/><path class="cls-3" d="M716.85,374.36h-9.31v97.23s-.63,4.31,3.5,4.31h2.16c4,0,3.65-4.31,3.65-4.31Z" transform="translate(-499.68 -245)"/><rect class="cls-3" x="157.96" y="181.29" width="9.3" height="87.83"/><rect class="cls-3" x="257.19" y="181.29" width="9.3" height="87.83"/><path class="cls-3" d="M554.05,468.49h-25c-2.79,0-4.58-1.5-4.58-3.95v-41a4.38,4.38,0,0,1,4.25-3.6h25.6c2.3,0,2.55-1.11,2.55-2.71s0-1.95,0-3.44,0-3.16-2.3-3.16H524.48s-.37,0-4.88,0a4.21,4.21,0,0,0-4.42,4.33v58.18s-.64,4.75,4.53,4.75h4.77v-.07h28.91c2.62,0,2.64-2,2.64-2v-4.76S556.1,468.49,554.05,468.49Z" transform="translate(-499.68 -245)"/><path class="cls-3" d="M582.31,471.08v4.76s0,2,2.63,2h28.91v.07h4.77c5.17,0,4.54-4.75,4.54-4.75V414.94a4.23,4.23,0,0,0-4.43-4.33c-4.51,0-4.88,0-4.88,0H583.78c-2.27,0-2.3,1.66-2.3,3.16s0,1.85,0,3.44.26,2.71,2.56,2.71H609.6a4.37,4.37,0,0,1,4.25,3.6v41c0,2.45-1.79,3.95-4.58,3.95h-25C582.24,468.49,582.31,471.08,582.31,471.08Z" transform="translate(-499.68 -245)"/><path class="cls-3" d="M571.25,517.2h-3.54c-3.19,0-2.92-3.47-2.92-3.47V375.36s-.42-4.09,2.42-4.09h4.13c3.11,0,2.75,3.7,2.75,3.7V514S574.27,517.2,571.25,517.2Z" transform="translate(-499.68 -245)"/></svg>