<svg id="圖層_1" data-name="圖層 1" xmlns="http://www.w3.org/2000/svg" viewBox="0 0 721.02 34.88"><defs><style>.cls-1{fill:none;stroke:#fff23f;stroke-miterlimit:10;stroke-width:0.64px;}.cls-2{fill:#fff23f;}</style></defs><line class="cls-1" x1="180.56" y1="16.82" x2="258.22" y2="16.82"/><line class="cls-1" x1="458.75" y1="16.82" x2="536.42" y2="16.82"/><path class="cls-2" d="M308.54,99.64V110.3c0,1.67-1.55,2.39-3.18,2.08v-2.19h-8.8v12.43c0,1.9-1.67,2.5-3.26,2.13V110.19h-8.84v.87c0,1.63-1.59,2.39-3.18,2V96.38l2.54.57c.42.08.64.34.64.49v0h8.84V90.13l2.61.53a.77.77,0,0,1,.65.49v6.33h6.94a2.3,2.3,0,0,0,1.86-1.14l2.69.84C309.49,97.63,308.54,99,308.54,99.64Zm-15.24,8.54V99.49h-8.84v8.69Zm12.06,0V99.49h-8.8v8.69Z" transform="translate(-281.28 -89.97)"/><path class="cls-2" d="M353.86,99.07v22.3c0,1.78-1.67,2.28-3.15,2v-2.77H330.23v.08c0,1.78-1.63,2.46-3.14,2.16V98.2l2.54.53c.38.08.6.27.6.5v19.18h8.65V91l2.61.57c.38.07.57.3.57.57v26.31h8.65V98l2.58.56C353.63,98.62,353.86,98.85,353.86,99.07Z" transform="translate(-281.28 -89.97)"/><path class="cls-2" d="M400.88,124.1c-2.05-.8-4.67-3.26-6.41-6.48a24.52,24.52,0,0,1-7.85,7,.39.39,0,0,1-.45-.64,32.7,32.7,0,0,0,7.16-8.84l-.23-.72a45.59,45.59,0,0,1-1.51-11.94c0-.5,0-.91,0-1.33H378.73v7.58A28.43,28.43,0,0,1,377,119.47a12,12,0,0,1-3.3,4.78c-.49.42-.79,0-.57-.49a26.31,26.31,0,0,0,2.51-8c.15-1.1.26-2.62.34-4.36h-1.82a21.51,21.51,0,0,1-1.14,6,11.45,11.45,0,0,1-3.37,4.93.39.39,0,0,1-.57-.53,20.76,20.76,0,0,0,1.82-4.81,30.09,30.09,0,0,0,.68-5.54h-1.25c-.57,0-.84-.42-1.37-1.9H376c0-1.17,0-2.42,0-3.67h-2.46c-.27,1.13-1.48,1.48-2.66,1.32V97.29l2.09.53c.38.12.6.27.6.57v5.5H376c0-1.9,0-3.79-.07-5.54l2,.42c.46.12.69.27.72.53h12.78c0-.87,0-1.78,0-3.07l2.24.57c.38.11.57.3.57.49,0,.8,0,1.44,0,2h3a1.28,1.28,0,0,1-.5-.41c-.83-1.07-1.21-1.79-1.86-2.66-.3-.42-.11-.76.35-.64A7.89,7.89,0,0,1,398.34,97a1.39,1.39,0,0,1-.23,2.35h.76c.68,0,1.06-.41,1.7-1.17.88.83,1.45,1.25,1.45,1.82,0,.76-.73,1.21-2,1.21h-5.69v1.18a47.21,47.21,0,0,0,.76,9.17,56.41,56.41,0,0,0,2.54-8.19l1.85,1c.69.37.69.64.5,1.25a57.61,57.61,0,0,1-3.79,9.25,13.7,13.7,0,0,0,3.79,5.27c.23.19.38.15.45,0a19.57,19.57,0,0,0,1.33-3.38c.11-.3.57-.15.57.08-.15,3.3,0,4.74.38,5.76S402.85,124.86,400.88,124.1Zm-31.78-31h10.51V90.24l2.31.45c.49.12.64.31.64.5v1.89h5.58V90.35l2.35.5c.49.11.6.34.6.57v1.66h8.08c.61,0,.95-.38,1.63-1.06.76.72,1.4,1.14,1.4,1.75s-.68,1.17-1.85,1.17h-9.26v1.71c0,1.17-1.51,1.67-2.95,1.44V94.94h-5.58v1.71c0,1.17-1.36,1.67-2.95,1.52V94.94h-9.1C369.9,94.94,369.75,94.49,369.1,93.08Zm13.5,26.58a1.94,1.94,0,0,1-2.54,1.14V102.15l2,.45c.49.11.57.27.61.49h4.85c.65,0,1-.41,1.59-1,.69.64,1.33,1.1,1.33,1.67,0,.76-.76,1.14-1.86,1.14h-1.67v3.33a1.41,1.41,0,0,0,1-.6l2.12.72c1.25.41.46,1.1.46,1.67v3.79c0,1-.91,1.67-2.58,1.44v-1h-1v3.61h.95c.65,0,1-.34,1.59-1,.72.72,1.37,1.1,1.37,1.67,0,.8-.8,1.21-1.9,1.21Zm1.78-14.78h-1.7v3.37h1.7Zm-1.7,5.08v2.54H388V110Zm1.7,4.24h-1.7v3.61h1.7Z" transform="translate(-281.28 -89.97)"/><path class="cls-2" d="M446.38,96c-1.1.83-2.77,2.16-3.68,2.73-.37.22-.87.07-.6-.46l1.17-2.31H420a8.68,8.68,0,0,1-.42,2c-1.51,4-5.53,1.78-3.37-.27a12.09,12.09,0,0,0,3.14-4.55c.16-.45.8-.34.8,0V94h11a5.11,5.11,0,0,1-.57-.57c-.68-.84-1.52-2-2-2.62-.27-.38,0-.72.49-.61,1.82.42,3.19.69,4,1.56A1.6,1.6,0,0,1,433,94h10a2.33,2.33,0,0,0,1.78-.8l1.33,1.29C447,95.32,447,95.51,446.38,96Zm-3.26,17.1v9.51c0,1.63-1.44,2-3,1.9v-2H422.34v0c0,1.9-1.44,2.24-3,2V110l2.2.42c.57.11.79.3.83.57h16.12a2,2,0,0,0,1.63-.83l2.42.72C444.11,111.4,443.12,112.38,443.12,113.07ZM439.06,100H421.89c-.57,0-.8-.41-1.44-1.85h17.44c.68,0,1-.23,1.67-1,.76.8,1.36,1.06,1.36,1.67C440.92,99.61,440.28,100,439.06,100Zm-16.72,15.78h7.43V113h-7.43Zm0,4.74h7.43v-2.81h-7.43Zm14.15-10.58v-1.33h-11c-.3,1.25-1.78,1.63-3,1.41v-8.65l2.46.49c.3.08.53.23.57.42h9.37a2.08,2.08,0,0,0,1.63-.91l2.54.72c1.51.42.49,1.52.49,2.12v4.06C439.52,109.69,438.15,110.15,436.49,109.92Zm0-3.11v-2.73h-11v2.73ZM432.85,113v2.81h7.24V113Zm7.24,7.55v-2.81h-7.24v2.81Z" transform="translate(-281.28 -89.97)"/><path class="cls-2" d="M565.3,105v17.41c0,1.82-1.48,2.31-3,2V105.56a34.67,34.67,0,0,1-6.72,11.91c-.34.37-.83-.12-.64-.5a60.45,60.45,0,0,0,6.22-16.49h-4.86c-.6,0-.75-.53-1.4-2.09h7.4V90.54l2.31.5c.42.07.68.26.68.53v6.82h2.5c.65,0,1-.26,1.67-1,.84.8,1.41,1.21,1.41,1.78,0,.8-.73,1.33-2,1.33h-3.6v2.77c2.28,1.85,3.79,2.8,4.7,4.2,1.52,2.36-.83,4.4-2.12,2.17C566.78,107.68,566.06,106.28,565.3,105Zm23.47,11.87-1,.42c-1.44.6-1.75.68-2.7-.61a27.23,27.23,0,0,1-2.69-4.7,42.86,42.86,0,0,1-2.65-7.55v18.28c0,1.67-1.52,2.24-3,1.93v-20.4c-1.51,4.74-4.85,10.89-9.17,14.45a.39.39,0,0,1-.57-.53,54.5,54.5,0,0,0,8.45-17.78H572.7c-.57,0-.76-.53-1.48-2h5.53V90.54l2.35.53c.38.08.65.31.65.61v6.6h4.13c.65,0,1-.3,1.71-1.06.79.79,1.4,1.21,1.4,1.82,0,.83-.76,1.29-2,1.29h-4.85a36.39,36.39,0,0,0,3.68,9.32,27.58,27.58,0,0,0,4.89,6.56C589,116.52,589.08,116.71,588.77,116.82Z" transform="translate(-281.28 -89.97)"/><path class="cls-2" d="M613.57,116.63c-1-1.29-1.78-2.35-2.46-3.22v9.17c0,1.71-1.44,2.24-3,1.94V113.18a28.81,28.81,0,0,1-7,8.08c-.46.34-.84-.23-.53-.61a50.17,50.17,0,0,0,6.21-9.93H602.2c-.65,0-.8-.42-1.52-2h7.47v-4.32l2.28.49c.49.12.68.31.68.61v3.22h2.24c.64,0,1-.3,1.67-1,.83.76,1.4,1.33,1.4,1.78,0,.69-.57,1.22-1.71,1.22h-3.6v1.21a20.71,20.71,0,0,1,4.17,2.5C617.18,116.21,615.36,118.87,613.57,116.63Zm-10.69-11.87a60.62,60.62,0,0,0,8.46-6c.91-.76,1.89-1.67,2.61-2.35h-9c-.69,0-.88-.45-1.6-2H616V90.47l2.39.45c.46.08.65.31.65.57v2.92h8.68c.76,0,1.1-.38,1.82-1.14.87.8,1.52,1.29,1.52,1.94s-.8,1.21-2.13,1.21H619v.65c4.09,1.59,7.43,2.84,10,4.55s1.56,4.7-1.28,2.57c-2-1.48-6.07-4.17-8.76-6.1v5.57c0,1.44-1.56,2-3,1.75V97.79a31.22,31.22,0,0,1-5,3.9,34.77,34.77,0,0,1-7.66,3.79C602.58,105.71,602.46,105,602.88,104.76Zm31.25,15.32-.84.46c-1.33.72-1.67.79-2.46.07a26.37,26.37,0,0,1-5.12-7.92v9.89c0,1.75-1.44,2.32-3,2V113a29.63,29.63,0,0,1-8.53,8.57.38.38,0,0,1-.46-.61,46.58,46.58,0,0,0,7.74-10.43h-3.19c-.56,0-.75-.37-1.44-2h5.88v-4l2.28.5c.45.11.68.34.68.56v3h4.47c.68,0,1.06-.34,1.75-1.06.79.76,1.4,1.25,1.4,1.82,0,.8-.76,1.21-2,1.21h-5a26.42,26.42,0,0,0,7.7,9C634.43,119.78,634.43,119.89,634.13,120.08Z" transform="translate(-281.28 -89.97)"/><path class="cls-2" d="M677.7,124.1c-2.05-.8-4.67-3.26-6.41-6.48a24.52,24.52,0,0,1-7.85,7A.39.39,0,0,1,663,124a32.7,32.7,0,0,0,7.16-8.84l-.23-.72a45.59,45.59,0,0,1-1.51-11.94c0-.5,0-.91,0-1.33H655.55v7.58a28.43,28.43,0,0,1-1.78,10.73,12,12,0,0,1-3.3,4.78c-.49.42-.79,0-.57-.49a26.31,26.31,0,0,0,2.51-8c.15-1.1.26-2.62.34-4.36h-1.82a21.51,21.51,0,0,1-1.14,6,11.54,11.54,0,0,1-3.37,4.93.39.39,0,0,1-.57-.53,20.76,20.76,0,0,0,1.82-4.81,30.09,30.09,0,0,0,.68-5.54H647.1c-.57,0-.84-.42-1.37-1.9h7.09c0-1.17,0-2.42,0-3.67H650.4c-.27,1.13-1.48,1.48-2.66,1.32V97.29l2.09.53c.38.12.6.27.6.57v5.5h2.43c0-1.9,0-3.79-.07-5.54l2,.42c.46.12.69.27.72.53h12.78c0-.87,0-1.78,0-3.07l2.24.57c.38.11.57.3.57.49,0,.8,0,1.44,0,2h3a1.33,1.33,0,0,1-.49-.41c-.83-1.07-1.21-1.79-1.86-2.66-.3-.42-.11-.76.34-.64A7.87,7.87,0,0,1,675.16,97a1.39,1.39,0,0,1-.23,2.35h.76c.68,0,1.06-.41,1.7-1.17.88.83,1.44,1.25,1.44,1.82,0,.76-.72,1.21-2,1.21h-5.69v1.18a47.21,47.21,0,0,0,.76,9.17,56.41,56.41,0,0,0,2.54-8.19l1.85,1c.69.37.69.64.5,1.25a57.61,57.61,0,0,1-3.79,9.25,13.7,13.7,0,0,0,3.79,5.27c.22.19.38.15.45,0a19.57,19.57,0,0,0,1.33-3.38c.11-.3.57-.15.57.08-.15,3.3,0,4.74.38,5.76S679.67,124.86,677.7,124.1Zm-31.78-31h10.5V90.24l2.32.45c.49.12.64.31.64.5v1.89H665V90.35l2.35.5c.49.11.6.34.6.57v1.66H676c.61,0,1-.38,1.63-1.06.76.72,1.4,1.14,1.4,1.75s-.68,1.17-1.85,1.17h-9.26v1.71c0,1.17-1.51,1.67-2.95,1.44V94.94h-5.58v1.71c0,1.17-1.36,1.67-3,1.52V94.94h-9.09C646.72,94.94,646.57,94.49,645.92,93.08Zm13.5,26.58a1.94,1.94,0,0,1-2.54,1.14V102.15l2,.45c.49.11.57.27.61.49h4.85c.65,0,1-.41,1.59-1,.68.64,1.33,1.1,1.33,1.67,0,.76-.76,1.14-1.86,1.14h-1.67v3.33a1.41,1.41,0,0,0,1-.6l2.12.72c1.25.41.46,1.1.46,1.67v3.79c0,1-.91,1.67-2.58,1.44v-1h-1v3.61h1c.65,0,1-.34,1.59-1,.72.72,1.37,1.1,1.37,1.67,0,.8-.8,1.21-1.9,1.21Zm1.78-14.78h-1.7v3.37h1.7ZM659.5,110v2.54h5.27V110Zm1.7,4.24h-1.7v3.61h1.7Z" transform="translate(-281.28 -89.97)"/><path class="cls-2" d="M725.48,112.61c0,1-.87,1.4-2.2,1.4h-14.6a14,14,0,0,1-1.63,3c-3.34,4.7-9.52,7.24-15,7.77-.72.08-.68-.64-.23-.8,3.64-1.32,9.75-4.13,12.48-8.37.34-.54.64-1.1.91-1.64H692.68c-.65,0-.8-.41-1.48-2.12H706a31.66,31.66,0,0,0,.64-3.34l2.12.65c1,.3,1.07.38,1,1.1a11.28,11.28,0,0,1-.34,1.59H722c.8,0,1.21-.38,2-1.21C724.91,111.63,725.48,112,725.48,112.61Zm-18.77-6.33v-3.15H698.4c-.72,0-.75-.34-1.51-2h9.82v-3.3H695.48c-.72,0-.79-.34-1.51-2h16.42a40.82,40.82,0,0,0,3-5.92l2,1.37c.75.53.75.72.37,1.14-.79.83-2.38,2.31-3.67,3.41h7c.69,0,1.06-.34,1.79-1.14.87.84,1.44,1.25,1.44,1.82,0,.87-.76,1.29-2.05,1.29H710v3.3h6c.79,0,1.17-.38,1.82-1.1.79.76,1.44,1.25,1.44,1.78,0,.91-.76,1.29-2,1.29H710v3.15h9.33c.75,0,1.06-.34,1.78-1.14.87.84,1.48,1.21,1.48,1.86,0,.91-.8,1.33-2.13,1.33H695.14c-.64,0-.72-.38-1.44-2ZM700.6,90.85c-.22-.34.19-.69.53-.57a11.23,11.23,0,0,1,4.14,2.39c1.74,2.12-.8,4.21-2.32,2C702.16,93.46,701.21,91.76,700.6,90.85ZM720.74,124c-2-1.37-7.59-5.46-10.43-7.85-.53-.42,0-.87.42-.68,6.18,2.46,10.2,4.51,11.68,5.8C725.25,123.72,723.43,125.81,720.74,124Z" transform="translate(-281.28 -89.97)"/><path class="cls-2" d="M848.87,112c-3,2.39-10.62,6.64-13.76,8.5-1,.61-1.48.3-4-2.2,1.67-.53,3.46-1.14,5.28-1.82v-24l2.5.53c.49.11.68.3.68.6v21.62c3.3-1.33,6.45-2.69,8.76-3.83C849,111.09,849.36,111.63,848.87,112ZM862,122.17c-1.94-2.77-3.45-5.08-5.5-7.78-2.43,4.1-7.09,8.27-15.36,9.63-.68.12-.79-.56-.3-.75,6.71-2.89,11.3-5.69,13.8-12A25.38,25.38,0,0,0,856,105a126.22,126.22,0,0,0,.45-13.27l2.39.49c.76.16.91.42.91,1.1-.08,3.68-.15,9.52-.61,12.67a25.3,25.3,0,0,1-2,7.2s0,.08-.07.15c3.6,2.7,5.76,4.48,7.05,6.34C866.39,122.81,863.89,124.86,862,122.17ZM844.21,95.32c-.19-.34.19-.83.68-.45,2.05,1.59,4.4,3.33,5.72,5.76,1.56,2.84-.9,5.35-2.27,2.77C847.24,101.31,845.46,97.6,844.21,95.32Z" transform="translate(-281.28 -89.97)"/><path class="cls-2" d="M883.61,107.83v14.94c0,1.71-1.52,2.2-2.89,1.86V99.15a14.44,14.44,0,0,1-3,2.2c-.5.27-.8-.27-.46-.61a29.07,29.07,0,0,0,6.11-10.61l1.86,1.06c.68.38.75.64.34,1.4a4.56,4.56,0,0,1-.27.46h6.45c.6,0,.91-.23,1.51-.91.8.68,1.29,1.21,1.29,1.66,0,.69-.6,1.07-1.82,1.07H888a3.87,3.87,0,0,1,1.29,1.29c1.06,1.82-1.07,3.82-2.13,1.28A23.68,23.68,0,0,0,886,94.87h-1.71a24.72,24.72,0,0,1-2.88,3.64l1.67.38c.3.07.53.22.57.45h4.66a1.67,1.67,0,0,0,1.4-.83l2.24.68c1.52.45.68,1.1.68,2v6c0,1.82-1.4,2.24-2.92,1.93v-1.29Zm0-6.78v1.59h6.06v-1.59Zm6.06,5v-1.63h-6.06V106Zm10.24,13.28c0,1.63-1.4,2.12-2.88,1.85v-1.55h-6.45c-.07,1.52-1.36,2-2.84,1.82V109.5L890,110c.45.11.57.3.6.49h4.82a1.71,1.71,0,0,0,1.63-1l2.31.76c1.67.53.57,1.37.57,2.09Zm-9.33-7.13v2H897v-2Zm6.45,5.72v-2h-6.45v2ZM909.85,93.8c0,.69-.65,1.07-1.82,1.07h-6a3.88,3.88,0,0,1,1.44,1.36c1,1.71-1,3.68-2.09,1.33A19.2,19.2,0,0,0,900,94.87h-2A18.39,18.39,0,0,1,893.73,99c-.45.3-.8-.19-.53-.57a31,31,0,0,0,4.21-8.3l1.86,1.13c.76.46.72.72.22,1.48a1,1,0,0,0-.19.31H907c.65,0,1-.23,1.59-.91C909.32,92.82,909.85,93.35,909.85,93.8Zm-2.43,7.36v21.69a1.92,1.92,0,0,1-3.11,1.52,22.25,22.25,0,0,0-4.32-2.05.29.29,0,0,1,.07-.57c.8,0,4.06.19,4.33-.08a.38.38,0,0,0,.11-.3V107.8h-6c-.34,1.44-2.09,1.47-2.88,1.29V98.43l2.24.46c.38.07.6.26.64.41h4.59a1.68,1.68,0,0,0,1.44-.87l2,.64C908.41,99.64,907.42,100.55,907.42,101.16Zm-8.91-.15v1.67h6V101Zm6,5v-1.56h-6V106Z" transform="translate(-281.28 -89.97)"/><path class="cls-2" d="M922.89,93.31h10V90.43l2.35.45c.45.08.68.23.68.54v1.89h7.28v-3l2.35.49c.57.11.68.3.68.64v1.86h6.6c.65,0,1-.38,1.67-1.06.76.72,1.4,1.14,1.4,1.74,0,.91-.83,1.18-2,1.18h-7.7v1.25c0,1.1-1.55,1.71-3,1.52V95.17H935.9v1.36c0,1.1-1.37,1.82-3,1.52V95.17h-8.61C923.69,95.17,923.5,94.75,922.89,93.31Zm8.38,18.92v10.66c0,1.29-1.17,1.93-2.8,1.67V113.07c-1,.3-1.9.57-2.73.79-1.14.31-1.22.23-2.77-2.31,1.17-.11,2.24-.19,3.26-.3a52.71,52.71,0,0,0,6.41-10.09l1.59,1.25c.83.65.8.68.27,1.37a73.55,73.55,0,0,1-6.37,7.31c1.66-.15,3.1-.3,4.47-.49l-.57-1.74c-.15-.46.23-.8.61-.5a13.23,13.23,0,0,1,3.11,3.15c1.29,2-1.14,4.32-2.24,1.59-.19-.49-.38-.94-.53-1.4C932.45,111.89,931.84,112,931.27,112.23Zm-4,5a31.74,31.74,0,0,1-3.26,6.52c-.42.49-.8.08-.68-.38.45-1.9,1.21-5.65,1.63-8.34l1.82.76C927.67,116.14,927.67,116.29,927.29,117.24ZM927,104.5a5.5,5.5,0,0,1,1.13,1.13c1.29,1.79-1,3.64-2.16,1.75-1-1.52-1.67-3-2.16-3.94-.23-.42.08-.8.57-.54s1.21.65,1.74,1A39.37,39.37,0,0,0,929.57,97L931,98c.91.61,1.06.8.57,1.41A59.4,59.4,0,0,1,927,104.5Zm6.29,15.2c-.49-1.82-.83-3.3-1.1-4.51-.11-.49.27-.76.68-.34a12.9,12.9,0,0,1,2.7,3.26C936.73,120.23,934,122.09,933.32,119.7Zm23.47,2.62c0,1-.76,1.29-2,1.29H934.31c-.53,0-.76-.27-1.41-1.9h3.83v-10.2l2.13.42c.34.07.56.23.56.49h10.09a1.58,1.58,0,0,0,1.33-.76l2.43.91c1.4.53.26,1.37.26,1.82v7.32h.15c.69,0,1.06-.42,1.71-1.14C956.11,121.26,956.79,121.71,956.79,122.32Zm-7.28-11V110h-9.18v0c0,1.06-1.47,1.47-2.76,1.32V97.67l2.2.42c.34.08.56.23.56.45v0H948a2,2,0,0,0,1.55-.83l.3.11,2.17.8c1.36.49.3,1.25.3,1.93V110C952.28,110.94,951.07,111.51,949.51,111.32Zm-10.09,10.39h2.09v-7.47h-2.09Zm10.09-13.53v-7.82h-9.18v7.82Zm-2.5-1.07c-.68-.68-1.71-1.85-2.35-2.65a21.49,21.49,0,0,1-3.23,3c-.45.31-.6-.15-.37-.53a57.72,57.72,0,0,0,3.11-6.37l1.59,1c.76.45.83.6.41,1.13l-.83,1a9.23,9.23,0,0,1,3,1.33C949.78,106.17,948.34,108.44,947,107.11Zm-.84,7.13h-2.08v7.47h2.08Zm2.58,0v7.47h2.09v-7.47Z" transform="translate(-281.28 -89.97)"/><path class="cls-2" d="M1002.3,112.61c0,1-.88,1.4-2.2,1.4H985.5a14,14,0,0,1-1.63,3c-3.34,4.7-9.52,7.24-15,7.77-.72.08-.68-.64-.23-.8,3.64-1.32,9.75-4.13,12.48-8.37.34-.54.64-1.1.91-1.64H969.5c-.65,0-.8-.41-1.48-2.12h14.79a31.66,31.66,0,0,0,.64-3.34l2.12.65c1,.3,1.07.38.95,1.1a11.28,11.28,0,0,1-.34,1.59h12.59c.8,0,1.21-.38,2-1.21C1001.73,111.63,1002.3,112,1002.3,112.61Zm-18.77-6.33v-3.15h-8.31c-.72,0-.76-.34-1.51-2h9.82v-3.3H972.3c-.72,0-.79-.34-1.51-2h16.42A40.82,40.82,0,0,0,990.16,90l2,1.37c.76.53.76.72.38,1.14-.79.83-2.39,2.31-3.67,3.41h7c.69,0,1.06-.34,1.78-1.14.88.84,1.45,1.25,1.45,1.82,0,.87-.76,1.29-2,1.29h-10.2v3.3h6c.79,0,1.17-.38,1.82-1.1.79.76,1.44,1.25,1.44,1.78,0,.91-.76,1.29-2.05,1.29h-7.24v3.15h9.33c.75,0,1.06-.34,1.78-1.14.87.84,1.48,1.21,1.48,1.86,0,.91-.8,1.33-2.13,1.33H972c-.64,0-.72-.38-1.44-2Zm-6.11-15.43c-.23-.34.19-.69.53-.57a11.23,11.23,0,0,1,4.14,2.39c1.74,2.12-.8,4.21-2.32,2C979,93.46,978,91.76,977.42,90.85ZM997.56,124c-2-1.37-7.59-5.46-10.43-7.85-.53-.42,0-.87.42-.68,6.18,2.46,10.2,4.51,11.68,5.8C1002.07,123.72,1000.25,125.81,997.56,124Z" transform="translate(-281.28 -89.97)"/></svg>