<svg id="圖層_1" data-name="圖層 1" xmlns="http://www.w3.org/2000/svg" viewBox="0 0 733.95 47.85"><defs><style>.cls-1{fill:#fff;}</style></defs><path class="cls-1" d="M569.58,837.17l-.85-1.9c4.55-2.55,8.2-5.1,9.9-10.95H570v-2.5h9.25a34.43,34.43,0,0,0,.5-5h-3.1a23.7,23.7,0,0,1-4.4,4.7l-1.45-1.35a31.59,31.59,0,0,0,4.75-11.5l5,1.25a26.69,26.69,0,0,1-2.1,4.35h13.7v2.55h-7.25a29.37,29.37,0,0,1-.55,5h8.9v2.5h-9.55c-.15.45-.35.9-.5,1.3a39.85,39.85,0,0,1,9.6,4.25l-2.85,4.3a68.66,68.66,0,0,0-7.75-6.4C579.53,832.47,575.18,835.37,569.58,837.17Zm8-2.45h28.7v20.6h-5.05v-3.15h-18.6v3.35h-5Zm5,7.15h18.6v-4.65h-18.6Zm0,7.8h18.6v-5.3h-18.6Zm28.3-36.1v19.15h-4.85v-3.25h-7.2v3.75h-4.85V813.57ZM606.13,827V816.12h-7.2V827Z" transform="translate(-287.5 -808.32)"/><path class="cls-1" d="M635.93,814.92a40.61,40.61,0,0,1,6.8,10.25l-4.55,2c-.4-1.4-.85-2.9-1.4-4.45a98.35,98.35,0,0,1-17.16,4.2l-1.19-5.2c1.65,0,3.45,0,5.3-.1a79.38,79.38,0,0,0,4.45-12.7l5.65,2a72.08,72.08,0,0,1-6.9,10.55c3.1-.2,6.25-.55,9.05-1-.6-1.5-1.2-3-1.85-4.55Zm-14.55,13.45h19v22.55c0,4.5-4.55,6.35-11.2,2.7l.35-2c5.2.75,5.85.4,5.85-2.45v-4.8h-9v11.15h-5Zm5,2.5v4.2h9v-4.2Zm9,11v-4.4h-9v4.4Zm8-17.55v-15h4.95v9.1a44.28,44.28,0,0,0,9.5-6.65l3.75,3.75a51.25,51.25,0,0,1-13.25,5.4v2.7c0,2,.6,2.4,3.05,2.65a34.9,34.9,0,0,0,5.6,0c2.75-.25,2.85-1.15,2.9-6.1h2.1c2,7.55,1.05,10.45-3.55,10.75a73.82,73.82,0,0,1-8.15,0C644.73,830.57,643.33,829.42,643.33,824.37Zm15.6,30.25a88.07,88.07,0,0,1-8.9,0c-5.35-.35-6.7-1.8-6.7-6.75V832.32h4.95v9a52.27,52.27,0,0,0,9.6-6.85l3.75,4a59.75,59.75,0,0,1-13.35,5.4v3.3c0,2,.7,2.45,3.2,2.7a39.77,39.77,0,0,0,6.45,0c2.45-.2,2.65-1,2.75-6.8h2.05C664.38,850.17,664.63,854.27,658.93,854.62Z" transform="translate(-287.5 -808.32)"/><path class="cls-1" d="M681.13,837.37A20.34,20.34,0,0,0,677.38,826a50.61,50.61,0,0,0,3.25-11.65h-5.25v41.1h-4.76v-44.6l4.16,1h5.7l1.2-1,4.9,2.45a51.44,51.44,0,0,1-7.2,12.4c3.75,3.3,6.6,8.95,6.65,13.4,0,5.7-4.85,7.9-10.45,3.4l.54-2C681,841.67,681.13,840.72,681.13,837.37Zm15.45-15.9c-.05,2.7-.2,5.2-.4,7.55h13.25c-.2,10.05-.65,16.5-1.55,20.8-1.1,5-6,7.55-13.9,1.15l.75-1.9c6.85,2.15,7.75,1.65,8.3-1.35s1.05-8.2,1.15-16.15h-8.3c-1.7,12.4-6.55,19.7-15.45,24.45l-1.2-1.7c8.95-6.85,12-15.1,12.1-32.85h-6.6v-2.55h13a81.24,81.24,0,0,0-6-8.75l1.45-1.55a46.33,46.33,0,0,1,9.3,7.7l-3,2.6h12.9v2.55Z" transform="translate(-287.5 -808.32)"/><path class="cls-1" d="M730.83,829.07c0,12-2,20.85-10.11,27.1l-1.5-1.45c4.31-5.25,5.86-10.55,6.36-18.05a31.47,31.47,0,0,1-6.25,5.3l-2.5-4.65a41.49,41.49,0,0,0,8.9-4c0-1.3,0-2.65,0-4.1V815h18.35c-2.5-1.85-5.25-3.75-6.9-4.75l.6-1.9a44.18,44.18,0,0,1,10.9,3.6l-1.8,3.05H762v2.6h-31.2Zm-10.11,1a83,83,0,0,0-3-10.55l1.86-.9a43.66,43.66,0,0,1,5.9,9.5Zm39.71,25.6c-5.3-.65-10.7-2-15.15-5.4a49.92,49.92,0,0,1-17.65,5.75l-.6-2a45.18,45.18,0,0,0,15.4-6.4,27,27,0,0,1-5.45-9.65h-4v-2.55h17.5l1.65-1,5.1,2.5a26.92,26.92,0,0,1-8,10.65c3.5,1.4,7.85,2.1,13.6,2.5ZM747.93,828v-5.4h-6.35c-.1,4.6-.65,9.95-9.55,12.55l-.85-1.75c5.1-2.9,5.55-5.85,5.55-13.35h16v6.65c0,2.05.3,2.55,2.7,2.55a5.21,5.21,0,0,0,4.15-1.5l2.3,3.55c-1.25,1.4-3.4,2.2-7.25,2.2C749.43,833.47,747.93,832.17,747.93,828Zm-2.65,17.5a22.7,22.7,0,0,0,5.35-7.4h-11.4A21.17,21.17,0,0,0,745.28,845.47Z" transform="translate(-287.5 -808.32)"/><path class="cls-1" d="M810.28,815.92v10.35h-5.1v-7.75h-31.1v7.55H769V815.92h21.61c-2.4-1.9-5.35-3.95-7.85-5.6l.7-1.9a44.61,44.61,0,0,1,11.35,3.8l-2.25,3.7Zm-1,23.7c1.65,11,1.25,14-4,14.3-4.35.2-9.4.3-14.05.05s-6.25-1.5-6.25-6.65v-8.1q-7.5,1.2-15.15,2.25l-.45-2.55c5.25-.75,10.45-1.5,15.6-2.3v-7.55a102.69,102.69,0,0,1-12.85,2.1l-.4-2.1a76,76,0,0,0,25.1-9.4l4.85,4a70.6,70.6,0,0,1-11.25,4.1v8c6.35-1,12.75-2.1,19.2-3.2l.45,2.6c-6.6,1.1-13.1,2.2-19.65,3.25v7.75c0,2,.5,2.65,2.6,2.8a92.81,92.81,0,0,0,10.55,0c2.85-.2,3.45-.85,3.65-9.3Z" transform="translate(-287.5 -808.32)"/><path class="cls-1" d="M287.5,844.45l3.06-1.83c2.14,4,4.63,5.93,7.44,5.93a7.16,7.16,0,0,0,3.4-.84,5.92,5.92,0,0,0,2.41-2.26,5.76,5.76,0,0,0,.83-3,6.09,6.09,0,0,0-1.22-3.54,28.83,28.83,0,0,0-6.15-5.76,31.39,31.39,0,0,1-5.59-4.91,9,9,0,0,1-1.91-5.49,8.35,8.35,0,0,1,1.13-4.28,8,8,0,0,1,3.16-3,9.1,9.1,0,0,1,4.43-1.11,9.43,9.43,0,0,1,4.75,1.26,16.26,16.26,0,0,1,4.67,4.63L305,822.43a14.09,14.09,0,0,0-3.45-3.54,6,6,0,0,0-3.11-.86,4.94,4.94,0,0,0-3.56,1.32,4.32,4.32,0,0,0-1.38,3.25,5.62,5.62,0,0,0,.49,2.27,8.36,8.36,0,0,0,1.79,2.39q.71.69,4.63,3.59a26.3,26.3,0,0,1,6.4,6.13,9.84,9.84,0,0,1,1.73,5.4,9.13,9.13,0,0,1-3,6.78,10,10,0,0,1-7.22,2.88,10.59,10.59,0,0,1-5.93-1.74A16.14,16.14,0,0,1,287.5,844.45Z" transform="translate(-287.5 -808.32)"/><path class="cls-1" d="M316.31,815.23h7.16a43,43,0,0,1,8.1.49,9.22,9.22,0,0,1,5.2,3.14,8.91,8.91,0,0,1,2,5.92,9.57,9.57,0,0,1-1.38,5.16,8.51,8.51,0,0,1-3.94,3.36,18,18,0,0,1-7.08,1.16l12.92,16.68h-4.44l-12.92-16.68h-2v16.68h-3.59Zm3.59,3.51V831l6.19,0a15.29,15.29,0,0,0,5.32-.69,5.52,5.52,0,0,0,2.69-2.18,6.1,6.1,0,0,0,1-3.36,5.75,5.75,0,0,0-1-3.28,5.37,5.37,0,0,0-2.56-2.11,15.42,15.42,0,0,0-5.29-.64Z" transform="translate(-287.5 -808.32)"/><path class="cls-1" d="M379.91,821.89l-2.83,2.17a15.49,15.49,0,0,0-5.63-4.62,16.45,16.45,0,0,0-7.21-1.58,15.89,15.89,0,0,0-8,2.07,14.76,14.76,0,0,0-5.68,5.54,15.36,15.36,0,0,0-2,7.82,14.67,14.67,0,0,0,4.5,11,15.61,15.61,0,0,0,11.37,4.4,16,16,0,0,0,12.62-5.91l2.83,2.15a18,18,0,0,1-6.7,5.28,21,21,0,0,1-9,1.87q-9.44,0-14.87-6.27A18.91,18.91,0,0,1,344.8,833a17.81,17.81,0,0,1,5.53-13.27,19.08,19.08,0,0,1,13.86-5.39,20.41,20.41,0,0,1,9.08,2A17.66,17.66,0,0,1,379.91,821.89Z" transform="translate(-287.5 -808.32)"/><path class="cls-1" d="M410.44,850.54h18v3.05H387.19v-3.05h17.65v-8.65H392.39v-2.8h12.45v-7.8H394.29V830a47.08,47.08,0,0,1-8.65,4l-.9-2c9.85-4.9,15.95-12.25,18.35-17.8h-10.9v-2.8h18c2.45,6.55,10,13,20.91,16.55l-3.1,5.8a44.42,44.42,0,0,1-6.85-4v1.6H410.44v7.8H423v2.8H410.44Zm9.3-21.9c-4.34-3.4-8.6-8-10.85-13.8-2.1,4.8-6.55,9.85-12.45,13.8Z" transform="translate(-287.5 -808.32)"/><path class="cls-1" d="M456.69,816a50.91,50.91,0,0,1-5.55,14.1h24.41v24.55H470.1V850H451.34v5.15h-5.4V837.54a43.25,43.25,0,0,1-9.9,8.75l-1.35-1.8A50.74,50.74,0,0,0,450.34,816h-14v-3h42.81v3Zm-5.35,31.35H470.1V832.89H451.34Z" transform="translate(-287.5 -808.32)"/><path class="cls-1" d="M498.59,829.94v25.25h-5v-22.4a46.42,46.42,0,0,1-8,13.1l-1.45-1.5a67,67,0,0,0,8.4-21.8h-7V820h8v-10.9h5V820h6.55v2.55h-6.55v3.85a62.3,62.3,0,0,1,8,8.25l-3.7,2.7C501.59,834.89,500,832.24,498.59,829.94Zm30.61-7.4h-6.35v27.3c0,5.1-5,7.6-14.76,2.2l.5-2c8.15,1.4,8.9,1.05,8.9-1.85v-17.3a49.67,49.67,0,0,1-15.3,16.6l-1.3-1.7a54.15,54.15,0,0,0,15.05-23.25h-9.2V820h10.75V809.14h5.36V820h6.35Z" transform="translate(-287.5 -808.32)"/><path class="cls-1" d="M852.75,826.46H849.3a12.38,12.38,0,0,1,3.56-8.73,11.42,11.42,0,0,1,8.41-3.41,10.7,10.7,0,0,1,11.08,10.75,11.82,11.82,0,0,1-1.46,5.73,40.83,40.83,0,0,1-5.67,7.24l-9,9.63h16.57v3.47H848.45l13.72-14.83a44.64,44.64,0,0,0,5.43-6.63,8.91,8.91,0,0,0,1.26-4.56,7,7,0,0,0-2.26-5.22,8.2,8.2,0,0,0-11.25.11A9.87,9.87,0,0,0,852.75,826.46Z" transform="translate(-287.5 -808.32)"/><path class="cls-1" d="M896,814.32h.73v25H901v3.42h-4.35v8.35h-3.56v-8.35H875.94Zm-2.83,25V824.29l-10.64,15.08Z" transform="translate(-287.5 -808.32)"/><path class="cls-1" d="M904,836.15H917.4v3H904Z" transform="translate(-287.5 -808.32)"/><path class="cls-1" d="M925.6,823.55h-3.66a12,12,0,0,1,3.83-6.83,10,10,0,0,1,6.69-2.4,11.12,11.12,0,0,1,5.24,1.28,9.54,9.54,0,0,1,3.76,3.46,8.63,8.63,0,0,1,1.33,4.54q0,4.64-4.62,7.35a10.39,10.39,0,0,1,4.25,3.08,9.81,9.81,0,0,1,2.34,6.39,11.37,11.37,0,0,1-1.61,5.83,11.22,11.22,0,0,1-4.39,4.28,12.82,12.82,0,0,1-6.23,1.51,11.45,11.45,0,0,1-7.74-2.67,13.15,13.15,0,0,1-4-7.85h3.52a10.06,10.06,0,0,0,2.66,5.05,8.19,8.19,0,0,0,5.66,2,8.56,8.56,0,0,0,6.28-2.34,7.52,7.52,0,0,0,2.36-5.5,7.12,7.12,0,0,0-1.18-3.93,7.42,7.42,0,0,0-3.17-2.75,17.49,17.49,0,0,0-6.17-1.15v-3.3a11.44,11.44,0,0,0,4.49-.86,6.54,6.54,0,0,0,2.94-2.21,5.06,5.06,0,0,0,.92-2.93,5.31,5.31,0,0,0-1.87-4.06,6.71,6.71,0,0,0-4.72-1.71,6.32,6.32,0,0,0-4,1.31A9.8,9.8,0,0,0,925.6,823.55Z" transform="translate(-287.5 -808.32)"/><path class="cls-1" d="M948.28,833.2q0-7.11,1.53-11a12.67,12.67,0,0,1,4.3-5.88,10.39,10.39,0,0,1,6.23-2,10.67,10.67,0,0,1,6.32,2,13.32,13.32,0,0,1,4.48,6,36.42,36.42,0,0,1,0,21.58,13.35,13.35,0,0,1-4.48,6,10.69,10.69,0,0,1-6.35,2,10.43,10.43,0,0,1-6.2-2,12.8,12.8,0,0,1-4.31-5.9Q948.28,840.25,948.28,833.2Zm3.39.06a29.71,29.71,0,0,0,1.09,9.2,9.7,9.7,0,0,0,3.21,4.72,7.07,7.07,0,0,0,9,0,9.69,9.69,0,0,0,3.15-4.73,28.19,28.19,0,0,0,1.34-9.23,27.82,27.82,0,0,0-1.19-8.88,10.35,10.35,0,0,0-3.31-5.06,7.06,7.06,0,0,0-8.95,0,9.81,9.81,0,0,0-3.2,4.71A29.44,29.44,0,0,0,951.67,833.26Z" transform="translate(-287.5 -808.32)"/><path class="cls-1" d="M994.35,838.29l.7,1.85a90.73,90.73,0,0,1-16.7,8.05l-1.55-5.55a62.84,62.84,0,0,0,6.55-1.25V825.24H977.5v-2.55h5.85V809.24h4.95v13.45h5.75v2.55H988.3v14.9C990.35,839.59,992.4,838.94,994.35,838.29Zm27.11-4.15v2.55h-12.31v18.75h-5.25V836.69H991.5v-2.55h12.4v-19.6H993.15V812h26.65v2.55h-10.65v19.6Zm-23.71-2.55a122.8,122.8,0,0,0-3.8-13.5l1.85-.8a51.86,51.86,0,0,1,6.9,12.5Zm12.25-.75a65,65,0,0,0,4.3-14.15l5.25,2.1a58.79,58.79,0,0,1-7.75,13Z" transform="translate(-287.5 -808.32)"/><rect class="cls-1" x="260.83" y="23.42" width="4" height="4"/><rect class="cls-1" x="543.88" y="23.68" width="4" height="4"/></svg>