<svg id="圖層_1" data-name="圖層 1" xmlns="http://www.w3.org/2000/svg" viewBox="0 0 636.13 47.8"><defs><style>.cls-1{fill:#fff;}</style></defs><path class="cls-1" d="M336.79,899.38h-3.44a12.31,12.31,0,0,1,3.55-8.73,11.42,11.42,0,0,1,8.41-3.41A10.7,10.7,0,0,1,356.39,898a11.74,11.74,0,0,1-1.46,5.73,41.2,41.2,0,0,1-5.67,7.24l-8.95,9.63h16.57v3.47H332.49l13.72-14.83a44.23,44.23,0,0,0,5.44-6.63A9.05,9.05,0,0,0,352.9,898a7,7,0,0,0-2.26-5.22,7.62,7.62,0,0,0-5.53-2.19,7.74,7.74,0,0,0-5.72,2.3A9.87,9.87,0,0,0,336.79,899.38Z" transform="translate(-332.49 -881.2)"/><path class="cls-1" d="M371.41,899.46c-.3,18.1-4.6,23.95-9.15,28.7l-1.5-1.25c3.25-4.8,5.3-10.6,5.3-26.45V885l4.7,1.11c7.8-.3,19.06-2.05,25.76-4.65l5.1,4.6c-8.85,1.65-21.81,2.25-30.21,2.05v2.25H402v9.1Zm13.2,8.8a28.54,28.54,0,0,1-.44,4.1h16.3a108.06,108.06,0,0,1-1.15,11.1c-.7,4-4.45,7-14,1.6l.71-1.95c7.3,1.45,8,1.1,8.45-1.6a60.49,60.49,0,0,0,.7-6.65H383.56c-1.75,5.9-6,11.2-15.1,13.8l-.85-1.75c9.55-4.7,11.35-10.95,11.75-18.65h-7.9v-2.55h18.16a89.78,89.78,0,0,0-8.16-4.15l.5-1.8a59.16,59.16,0,0,1,11,2.65l-1.65,3.3h13.55v2.55Zm-13.2-15.35V897h25.41v-4.05Z" transform="translate(-332.49 -881.2)"/><path class="cls-1" d="M414,899.38h-3.44a12.31,12.31,0,0,1,3.55-8.73,11.42,11.42,0,0,1,8.41-3.41A10.7,10.7,0,0,1,433.6,898a11.74,11.74,0,0,1-1.46,5.73,41.2,41.2,0,0,1-5.67,7.24l-9,9.63h16.57v3.47H409.7l13.72-14.83a44.23,44.23,0,0,0,5.44-6.63,9.05,9.05,0,0,0,1.25-4.56,7,7,0,0,0-2.26-5.22,7.62,7.62,0,0,0-5.53-2.19,7.74,7.74,0,0,0-5.72,2.3A9.87,9.87,0,0,0,414,899.38Z" transform="translate(-332.49 -881.2)"/><path class="cls-1" d="M448.47,901.36v26.95h-4.8V908.16a30.18,30.18,0,0,1-4.2,4.2l-1.4-1.45a62,62,0,0,0,9.85-19.5l4.7,1.7a3.47,3.47,0,0,0-.25.65h3.45c.25-1.55.55-3.25.75-4.9h-4.25V886.5h4.6c.25-1.79.45-3.45.55-4.59l4.45.34c-.15,1-.35,2.61-.6,4.25h7.46v7.26h4v2.5H451.32v-.2C450.42,897.91,449.47,899.71,448.47,901.36Zm-8.85-3.15-1.45-1.55a49.86,49.86,0,0,0,8.05-14.95l4.85,2.09A47.9,47.9,0,0,1,439.62,898.21Zm32.81,22.55h-8.05v7.5h-5v-7.5h-5c-.2,1-.45,2-.7,2.9l-4.2-.65c.5-2,1.4-6.1,1.9-9.65l4.25.65c-.2,1.35-.45,2.8-.75,4.25h4.51v-5.55h-9.26v-2.4h9.26v-2.95h-7.46v-8.7h17.91v8.7h-5.45v2.95h7.2v2.4h-7.2v5.55h8.05ZM465,905v-4h-8.91v4Zm-4.81-11.25h3.95v-4.9H461C460.72,890.61,460.42,892.41,460.17,893.76Zm23.21,3.9v2.5h-3.7v23.05c0,5.35-5.2,6.55-12.3,2.65l.55-2c5.95,1.15,6.75.6,6.75-2.15v-21.6h-4.25v-2.5Zm-1.15-9.6H470.88V885.5h11.35Z" transform="translate(-332.49 -881.2)"/><path class="cls-1" d="M529.08,894.51v16.6h-5.3v-3H500.27c-1,10.15-4.25,15.75-9.25,20.45l-1.55-1.35c3.55-5.3,5.65-10.8,5.65-25.35v-15.8l5.35,1.35c9.1-.85,17.56-2.8,22.56-5.55l5.65,4.75c-7,1.85-18.46,2.9-28.11,2.85v5Zm-5.3,11v-8.35H500.57v3.7c0,1.65-.05,3.2-.1,4.65Z" transform="translate(-332.49 -881.2)"/><path class="cls-1" d="M578.58,894.51v16.6h-5.3v-3H549.77c-1,10.15-4.25,15.75-9.25,20.45L539,927.26c3.55-5.3,5.65-10.8,5.65-25.35v-15.8l5.35,1.35c9.1-.85,17.55-2.8,22.56-5.55l5.65,4.75c-7,1.85-18.46,2.9-28.11,2.85v5Zm-5.3,11v-8.35H550.07v3.7c0,1.65-.05,3.2-.1,4.65Z" transform="translate(-332.49 -881.2)"/><path class="cls-1" d="M632.28,921.41l-1.8,5.25c-5.5.35-13.86.5-20,.25-9.35-.4-13-2-15.15-6.65a30.3,30.3,0,0,1-5.75,8.3l-3.3-3.5a29.18,29.18,0,0,0,6.3-5.8v-11.7h-5.25V905h10.15v14a7,7,0,0,0,4,3.15l-.65-1.3c4.45-2.3,6.35-5.35,7-9h-7v-2.2h12.8c-.95-1.35-1.95-2.65-2.8-3.75l1-1.25a20.76,20.76,0,0,1,5.34,3.75l-1.45,1.25h13.76v2.2h-17a10.93,10.93,0,0,1-.5,1.7h13.81a21.45,21.45,0,0,1-1,5.5c-.8,2.8-4.66,4.6-10.61.35l.61-1.6c4.84,1.4,6,1.55,6.24-2.25h-10a15.37,15.37,0,0,1-8.7,6.9,41.49,41.49,0,0,0,8,.45A160.68,160.68,0,0,0,632.28,921.41Zm-44.66-27.95,1.1-1.8a37.3,37.3,0,0,1,9.45,5.85l-3.5,4A74.54,74.54,0,0,0,587.62,893.46Zm2.55-9.6,1.05-1.7a34.88,34.88,0,0,1,9.35,5.35l-3.4,4A81.06,81.06,0,0,0,590.17,883.86Zm20.6,13.85h-7.6V885.46h8.05c.4-1.35.7-2.8,1-4.21l4.86,1.21a21.2,21.2,0,0,1-2.81,3h11.81v12.25h-9.66c.66.25,1.25.55,1.86.85l-1.06,1.5h12.36v4.3h-1.75l2,1.8a5,5,0,0,1-4,2.05c-2.21,0-3.9,0-5.6,0-2.61-.15-3.76-.8-3.76-3.55v-2.55h-3.6c-1.35,4.2-5.65,6.35-11.45,6.6l-.4-1.5c4.6-1,6.65-2.55,7.55-5.1h-4.55v3.45h-4.5v-5.5h14.81C613.12,899.16,611.82,898.31,610.77,897.71Zm-2.9-8.65h13.51v-1.45H607.87Zm0,3.3h13.51V891H607.87Zm0,3.35h13.51v-1.5H607.87Zm17.21,8.65v-2.25h-4.61v1.65c0,1.4.41,1.5,1.56,1.6a22.53,22.53,0,0,0,3.65-.05,2.29,2.29,0,0,0,1.7-.95Z" transform="translate(-332.49 -881.2)"/><path class="cls-1" d="M639.42,883.8h17.45v15.46h-12.4v29h-5.05Zm12.65,6.41v-3.85h-7.6v3.85Zm0,6.5v-4h-7.6v4Zm-2.5,6.45h18.65v17H649.57Zm13.85,7.1v-4.55h-9.1v4.55Zm0,7.4v-4.95h-9.1v4.95Zm3.3,5.8c6.06,1.2,6.81.65,6.81-1.9v-22.3H660.77V883.8h17.76v39.41c0,5.3-4.95,6.65-12.36,2.25Zm6.81-33.25v-3.85h-7.91v3.85Zm0,6.5v-4h-7.91v4Z" transform="translate(-332.49 -881.2)"/><path class="cls-1" d="M746.72,902.35c-2.65,9.85-8.3,18.1-18.25,23l-1.15-1.8c8.35-6.4,11.55-13.1,13.1-19.8h-10.8v-2.55H740l1.55-1.2Zm25.9,16.7-4.4,5.85c-7-4.85-11.55-11.45-14.55-20.85V922.2c0,6.4-5.55,8.15-14.8,2.55l.65-2c7.85,1.7,8.75,1.15,8.75-1.7V894.8h-12.7V892h18.1v4.4a40,40,0,0,0,2.9,7.2,45.72,45.72,0,0,0,7.85-9.7l5.1,4.1a53.89,53.89,0,0,1-11.8,7.7C761.77,912.35,767.17,916.2,772.62,919.05Zm-17.45-28.5a97.25,97.25,0,0,0-14-7.3l.55-2c4.75.6,12.4,2.45,16,4.1Z" transform="translate(-332.49 -881.2)"/><path class="cls-1" d="M778.22,915.65l-1.55-1.45c3.9-5.65,4-13.65,4-25.85h19a51.79,51.79,0,0,1-.4-6.25h4.7a52.54,52.54,0,0,0,.45,6.25h8c-1.85-1.55-4.15-3.25-5.75-4.4l.95-1.9a36.36,36.36,0,0,1,8.65,3.45l-1.9,2.85h6.65v2.55h-16.1A33.24,33.24,0,0,0,808,900a33.51,33.51,0,0,0,4.25-7.75l4.5,1.9a32.65,32.65,0,0,1-6.15,9.35,8.39,8.39,0,0,0,5.25,2.7c1.65.15,1.9-.8,1.85-6.1h2.05c1.65,7.55,1.45,11.65-3.35,11.2a14.44,14.44,0,0,1-9.35-4.7,30.79,30.79,0,0,1-13,5.15l-.6-1.8a30,30,0,0,0,11.3-6.3,34.7,34.7,0,0,1-4.7-12.7H785.87v4.45h12.55a76,76,0,0,1-1.1,9.45c-.85,4.25-5.5,4.85-10.65,1.4l.65-1.8c4.2,1.1,5.1.85,5.55-1.25a41.17,41.17,0,0,0,.65-5.35h-7.7C785.42,905.5,782.57,912.15,778.22,915.65Zm43,8.25v2.55h-43.6V923.9h5V912.35h34V923.9Zm-33.85,0h5.15v-9h-5.15Zm9.7-9v9H802v-9Zm14.75,0h-5.2v9h5.2Z" transform="translate(-332.49 -881.2)"/><path class="cls-1" d="M827.17,910.5l-1.25-1.7c6.1-5.95,10.45-13.55,13-23.9l6,2.25C841.52,896.2,835.07,905.4,827.17,910.5Zm41,14.2-5.8,3.2c-.85-2.25-2-4.75-3.2-7.3a134.52,134.52,0,0,1-27.6,5.6l-1.5-6.35c2,0,4.2,0,6.4-.05A83.79,83.79,0,0,0,844.82,899l6.3,2.45a83.33,83.33,0,0,1-11.25,18.25c6.4-.25,13-.8,18.1-1.45-1.3-2.55-2.75-5.15-4.25-7.55l1.75-1.45A72.16,72.16,0,0,1,868.17,924.7ZM855,887.3h-8v-2.6h10.1c1.75,9.95,7.9,16,15,19.7l-4.4,6.05C861.22,905.65,856.57,897.75,855,887.3Z" transform="translate(-332.49 -881.2)"/><path class="cls-1" d="M918.12,884v44.3h-5v-2.8h-29.7v2.9h-5V884Zm-5,2.55h-29.7v36.4h29.7ZM885,915.75l-.7-1.9a38.39,38.39,0,0,0,9.3-5.1h-5.75V900.5h20.85v8.25h-9.2a24.39,24.39,0,0,1-3.5,2.6v4.9c1.85-.45,3.6-.9,5-1.35l.7,1.85a67.81,67.81,0,0,1-14.45,5.45l-1.35-4c1.65-.2,3.5-.55,5.45-1v-3.6A47.77,47.77,0,0,1,885,915.75Zm26.65-17.25H884.77V896h11v-2.7h-9.15v-2.45h9.15v-3.1h5v3.1h9.2v2.45h-9.2V896h10.9Zm-19.2,7.8H904V903h-11.6Zm20.1,4.45a26.38,26.38,0,0,1-5.2,3.65,45.54,45.54,0,0,1,5.35,3.7l-3.2,3.65a91.8,91.8,0,0,0-11-9.75l1.05-1.7c1.75.75,3.7,1.75,5.7,2.85a33.33,33.33,0,0,0,4-5Z" transform="translate(-332.49 -881.2)"/><path class="cls-1" d="M946,909.5a26.62,26.62,0,0,1-.55,3.65h18.1a66,66,0,0,1-1.6,10.6c-1.35,5.5-6.7,6.45-14.15,1.75l.65-2c7.1,1.7,7.75,1.2,8.5-1.45a37.68,37.68,0,0,0,.95-6.45h-13.2c-2.85,7.9-9.75,11.75-18,13.35l-.6-2c10.55-3.6,13.5-9.9,14.25-17.55H927V907h21c-2-2-4.3-4-6.4-5.8l.8-1.4h-9.5v5.75h-5v-8.25h12.5c-1.35-2.35-2.9-4.8-4-6.4l.65-.65h-9.3v-2.55h19.65c-2.3-1.65-4.5-3.1-6.9-4.55l.8-1.9a39.86,39.86,0,0,1,10.75,3.6l-1.8,2.85h17.8v2.55H956.62l3.8,1.5a38.44,38.44,0,0,1-5.5,5.55h12.75v8.25h-5v-5.75h-18.9a43.24,43.24,0,0,1,8.6,4.4l-2.25,2.8h18.55v2.55Zm-.65-14-2.45,1.8h8.75a40.86,40.86,0,0,0,3-7H939.17A38.47,38.47,0,0,1,945.37,895.45Z" transform="translate(-332.49 -881.2)"/><rect class="cls-1" x="370.95" y="22.53" width="4" height="4"/></svg>