<svg id="圖層_1" data-name="圖層 1" xmlns="http://www.w3.org/2000/svg" viewBox="0 0 50.45 64.3"><defs><style>.cls-1{fill:#727171;}</style></defs><path class="cls-1" d="M91.86,668.1v-1.58H68.66v1.58H78.83a.6.6,0,0,1,.64.65v1.59a.49.49,0,0,1-.53.55H68.77v1.58H78.94a.52.52,0,0,1,.53.55v1.64a.53.53,0,0,1-.58.49H68.66v1.57h23.2v-1.57H81.65c-.66,0-.6-.54-.6-.54V673s0-.51.62-.51H91.75v-1.58H81.67a.56.56,0,0,1-.62-.48v-1.73s0-.58.69-.58Z" transform="translate(-41.49 -625.46)"/><path class="cls-1" d="M81.55,681.42h10.2v-1.58H82c-1.1,0-1-.68-1-.77v-.38c0-.19,0-.52-.41-.52h-.78c-.41,0-.39.39-.39.5V679s.17.82-1,.82H68.77v1.58H78.92c.51,0,.55.36.55.49v.64c0,.1,0,.28-.44.47s-10.37,4.8-10.37,4.8l.08,1.66s8.27-3.87,10.5-4.82a2.58,2.58,0,0,1,2.07-.06c2,.87,10.63,4.88,10.63,4.88l-.08-1.66s-9.78-4.55-10.32-4.78-.49-.33-.49-.49v-.73C81.05,681.67,81.05,681.42,81.55,681.42Z" transform="translate(-41.49 -625.46)"/><path class="cls-1" d="M81.72,664.82c1.46-.44,5-1.87,6.46-2.31a.76.76,0,0,0,.59-1c-.06-.16-.22-.68-1.21-.39-1.72.49-4.77,1.8-5.91,2.14a4.35,4.35,0,0,1-2.53,0c-1.49-.5-5.08-2-5.08-2l-.76-.24c-.45-.14-.94,0-1,.39a.89.89,0,0,0,.65,1.07c.58.17,1.09.34,1.09.34l5.1,2A5.77,5.77,0,0,0,81.72,664.82Z" transform="translate(-41.49 -625.46)"/><path class="cls-1" d="M45.05,665.28l-.6,1.69h1.83l.66-1.86a1.23,1.23,0,0,1,1.13-.58h2.62l.44-1.48H45.55c-1.47,0-.94-1.1-.87-1.27l.38-1.1H43.23s-.8,2.28-.84,2.37-.74,1.48.71,1.48h1.45C45.26,664.53,45.05,665.28,45.05,665.28Z" transform="translate(-41.49 -625.46)"/><path class="cls-1" d="M55.71,665.28l-.6,1.69h1.83l.66-1.86a1.22,1.22,0,0,1,1.13-.58h2.62l.44-1.48H56.21c-1.47,0-.94-1.1-.88-1.27s.39-1.1.39-1.1H53.89s-.8,2.28-.84,2.37-.75,1.48.71,1.48H55.2C55.92,664.53,55.71,665.28,55.71,665.28Z" transform="translate(-41.49 -625.46)"/><path class="cls-1" d="M56,679.17a.69.69,0,0,0-.69-.74H48.51c-.58,0-.63.67-.63.67v6.1a.69.69,0,0,0,.74.75h6.62a.69.69,0,0,0,.73-.69Zm-1.5,1.23v3.42a.61.61,0,0,1-.61.65H50c-.71,0-.58-.59-.58-.59v-3.39a.55.55,0,0,1,.62-.59h3.94A.48.48,0,0,1,54.47,680.4Z" transform="translate(-41.49 -625.46)"/><rect class="cls-1" x="9.3" y="56.14" width="2.28" height="1.17"/><path class="cls-1" d="M43.31,674.57v-6.13H42.26c-.75,0-.77.8-.77.8v20.52h1.82V674.57Z" transform="translate(-41.49 -625.46)"/><path class="cls-1" d="M49.25,668.44h-5v1.48h3.41c.79,0,.66.61.66.61V671s.11.51-.57.51H46v1.18h1.88a.47.47,0,0,1,.47.52v.7s.11.64-.79.64H44.24V676H49c.68,0,.78-.56.78-.93v-5.93S49.85,668.44,49.25,668.44Z" transform="translate(-41.49 -625.46)"/><polygon class="cls-1" points="19.04 49.1 19.04 44.45 19.03 44.45 19.03 49.1 19.04 49.1"/><path class="cls-1" d="M61.52,668.44h-1v1.48h0v4.65h0V676h0v13.72h1.81V669.41S62.29,668.44,61.52,668.44Z" transform="translate(-41.49 -625.46)"/><path class="cls-1" d="M56.2,674.57c-.76,0-.64-.6-.64-.6v-.74a.52.52,0,0,1,.54-.52h1.57v-1.18H56.12c-.7,0-.56-.51-.56-.51v-.56s-.08-.54.64-.54h3.39v-1.48H54.77a.63.63,0,0,0-.71.64v6s-.09.93.65.93h4.88v-1.47Z" transform="translate(-41.49 -625.46)"/><path class="cls-1" d="M87.88,650.83l-5.74-2.66a3.66,3.66,0,0,0-2.51,0c-.25.1-3,1.39-5.66,2.61v1.71c2.7-1.24,5.61-2.58,5.86-2.68a2.19,2.19,0,0,1,2.07-.06c1,.43,3.61,1.62,6,2.72Z" transform="translate(-41.49 -625.46)"/><path class="cls-1" d="M81.86,626.07H80v19.24s-.13.85.69.85h.43c.78,0,.72-.85.72-.85Z" transform="translate(-41.49 -625.46)"/><rect class="cls-1" x="28.66" y="10.88" width="1.84" height="17.37"/><rect class="cls-1" x="48.28" y="10.88" width="1.84" height="17.37"/><path class="cls-1" d="M49.51,644.7H44.56c-.55,0-.9-.3-.9-.79V635.8a.86.86,0,0,1,.84-.71h5.06c.46,0,.51-.22.51-.54s0-.38,0-.68,0-.62-.45-.62H42.69a.82.82,0,0,0-.87.85v11.51a.82.82,0,0,0,.9.94h6.66c.52,0,.52-.39.52-.39v-.94S49.91,644.7,49.51,644.7Z" transform="translate(-41.49 -625.46)"/><path class="cls-1" d="M55.1,645.21v.94s0,.39.52.39h6.66a.82.82,0,0,0,.9-.94V634.1a.83.83,0,0,0-.88-.85H55.39c-.45,0-.46.32-.46.62v.68c0,.32,0,.54.5.54H60.5a.87.87,0,0,1,.84.71v8.11c0,.49-.36.79-.91.79H55.49C55.08,644.7,55.1,645.21,55.1,645.21Z" transform="translate(-41.49 -625.46)"/><path class="cls-1" d="M52.91,654.33h-.7c-.63,0-.58-.69-.58-.69V626.27s-.08-.81.48-.81h.82c.61,0,.54.74.54.74v27.49S53.51,654.33,52.91,654.33Z" transform="translate(-41.49 -625.46)"/></svg>